<mxfile host="app.diagrams.net" agent="Mozilla/5.0 (Windows NT 10.0; Win64; x64) AppleWebKit/537.36 (KHTML, like Gecko) Chrome/131.0.0.0 Safari/537.36" version="25.0.3">
  <diagram name="ページ1" id="1KIi5tr5KOA7cCZ6tFy1">
    <mxGraphModel dx="831" dy="458" grid="1" gridSize="10" guides="1" tooltips="1" connect="1" arrows="1" fold="1" page="1" pageScale="1" pageWidth="827" pageHeight="1169" math="0" shadow="0">
      <root>
        <mxCell id="0" />
        <mxCell id="1" parent="0" />
        <mxCell id="sq4ge6hewjvMw_6YLF9u-3" value="" style="edgeStyle=orthogonalEdgeStyle;rounded=0;orthogonalLoop=1;jettySize=auto;html=1;" edge="1" parent="1" source="sq4ge6hewjvMw_6YLF9u-1" target="sq4ge6hewjvMw_6YLF9u-2">
          <mxGeometry relative="1" as="geometry" />
        </mxCell>
        <mxCell id="sq4ge6hewjvMw_6YLF9u-1" value="トップページ" style="whiteSpace=wrap;html=1;" vertex="1" parent="1">
          <mxGeometry x="10" y="40" width="120" height="60" as="geometry" />
        </mxCell>
        <mxCell id="sq4ge6hewjvMw_6YLF9u-5" value="" style="edgeStyle=orthogonalEdgeStyle;rounded=0;orthogonalLoop=1;jettySize=auto;html=1;" edge="1" parent="1" source="sq4ge6hewjvMw_6YLF9u-2" target="sq4ge6hewjvMw_6YLF9u-4">
          <mxGeometry relative="1" as="geometry" />
        </mxCell>
        <mxCell id="sq4ge6hewjvMw_6YLF9u-11" value="" style="edgeStyle=orthogonalEdgeStyle;rounded=0;orthogonalLoop=1;jettySize=auto;html=1;" edge="1" parent="1" source="sq4ge6hewjvMw_6YLF9u-2" target="sq4ge6hewjvMw_6YLF9u-10">
          <mxGeometry relative="1" as="geometry" />
        </mxCell>
        <mxCell id="sq4ge6hewjvMw_6YLF9u-2" value="検索結果" style="whiteSpace=wrap;html=1;" vertex="1" parent="1">
          <mxGeometry x="200" y="40" width="120" height="60" as="geometry" />
        </mxCell>
        <mxCell id="sq4ge6hewjvMw_6YLF9u-7" value="" style="edgeStyle=orthogonalEdgeStyle;rounded=0;orthogonalLoop=1;jettySize=auto;html=1;" edge="1" parent="1" source="sq4ge6hewjvMw_6YLF9u-4" target="sq4ge6hewjvMw_6YLF9u-6">
          <mxGeometry relative="1" as="geometry" />
        </mxCell>
        <mxCell id="sq4ge6hewjvMw_6YLF9u-19" value="" style="edgeStyle=orthogonalEdgeStyle;rounded=0;orthogonalLoop=1;jettySize=auto;html=1;" edge="1" parent="1" source="sq4ge6hewjvMw_6YLF9u-4" target="sq4ge6hewjvMw_6YLF9u-18">
          <mxGeometry relative="1" as="geometry" />
        </mxCell>
        <mxCell id="sq4ge6hewjvMw_6YLF9u-4" value="マイページ" style="whiteSpace=wrap;html=1;" vertex="1" parent="1">
          <mxGeometry x="200" y="180" width="120" height="60" as="geometry" />
        </mxCell>
        <mxCell id="sq4ge6hewjvMw_6YLF9u-9" value="" style="edgeStyle=orthogonalEdgeStyle;rounded=0;orthogonalLoop=1;jettySize=auto;html=1;" edge="1" parent="1" source="sq4ge6hewjvMw_6YLF9u-6" target="sq4ge6hewjvMw_6YLF9u-8">
          <mxGeometry relative="1" as="geometry" />
        </mxCell>
        <mxCell id="sq4ge6hewjvMw_6YLF9u-6" value="アカウント作成" style="whiteSpace=wrap;html=1;" vertex="1" parent="1">
          <mxGeometry x="200" y="320" width="120" height="60" as="geometry" />
        </mxCell>
        <mxCell id="sq4ge6hewjvMw_6YLF9u-8" value="ログイン" style="whiteSpace=wrap;html=1;" vertex="1" parent="1">
          <mxGeometry x="200" y="460" width="120" height="60" as="geometry" />
        </mxCell>
        <mxCell id="sq4ge6hewjvMw_6YLF9u-13" value="" style="edgeStyle=orthogonalEdgeStyle;rounded=0;orthogonalLoop=1;jettySize=auto;html=1;" edge="1" parent="1" source="sq4ge6hewjvMw_6YLF9u-10" target="sq4ge6hewjvMw_6YLF9u-12">
          <mxGeometry relative="1" as="geometry" />
        </mxCell>
        <mxCell id="sq4ge6hewjvMw_6YLF9u-10" value="店舗詳細" style="whiteSpace=wrap;html=1;" vertex="1" parent="1">
          <mxGeometry x="400" y="40" width="120" height="60" as="geometry" />
        </mxCell>
        <mxCell id="sq4ge6hewjvMw_6YLF9u-12" value="予約&lt;br&gt;（有料会員のみ）" style="whiteSpace=wrap;html=1;" vertex="1" parent="1">
          <mxGeometry x="600" y="40" width="120" height="60" as="geometry" />
        </mxCell>
        <mxCell id="sq4ge6hewjvMw_6YLF9u-16" value="" style="edgeStyle=orthogonalEdgeStyle;rounded=0;orthogonalLoop=1;jettySize=auto;html=1;" edge="1" parent="1" source="sq4ge6hewjvMw_6YLF9u-14" target="sq4ge6hewjvMw_6YLF9u-15">
          <mxGeometry relative="1" as="geometry" />
        </mxCell>
        <mxCell id="sq4ge6hewjvMw_6YLF9u-14" value="レビュー一覧" style="whiteSpace=wrap;html=1;" vertex="1" parent="1">
          <mxGeometry x="600" y="170" width="120" height="60" as="geometry" />
        </mxCell>
        <mxCell id="sq4ge6hewjvMw_6YLF9u-15" value="レビュー投稿&lt;br&gt;（有料会員のみ）" style="whiteSpace=wrap;html=1;" vertex="1" parent="1">
          <mxGeometry x="800" y="170" width="120" height="60" as="geometry" />
        </mxCell>
        <mxCell id="sq4ge6hewjvMw_6YLF9u-17" value="" style="endArrow=classic;html=1;rounded=0;entryX=0;entryY=0.5;entryDx=0;entryDy=0;" edge="1" parent="1" target="sq4ge6hewjvMw_6YLF9u-14">
          <mxGeometry width="50" height="50" relative="1" as="geometry">
            <mxPoint x="560" y="70" as="sourcePoint" />
            <mxPoint x="560" y="300" as="targetPoint" />
            <Array as="points">
              <mxPoint x="560" y="100" />
              <mxPoint x="560" y="200" />
            </Array>
          </mxGeometry>
        </mxCell>
        <mxCell id="sq4ge6hewjvMw_6YLF9u-21" value="" style="edgeStyle=orthogonalEdgeStyle;rounded=0;orthogonalLoop=1;jettySize=auto;html=1;" edge="1" parent="1" source="sq4ge6hewjvMw_6YLF9u-18" target="sq4ge6hewjvMw_6YLF9u-20">
          <mxGeometry relative="1" as="geometry">
            <Array as="points">
              <mxPoint x="350" y="210" />
              <mxPoint x="350" y="350" />
            </Array>
          </mxGeometry>
        </mxCell>
        <mxCell id="sq4ge6hewjvMw_6YLF9u-18" value="会員情報編集" style="whiteSpace=wrap;html=1;" vertex="1" parent="1">
          <mxGeometry x="400" y="180" width="120" height="60" as="geometry" />
        </mxCell>
        <mxCell id="sq4ge6hewjvMw_6YLF9u-23" value="" style="edgeStyle=orthogonalEdgeStyle;rounded=0;orthogonalLoop=1;jettySize=auto;html=1;" edge="1" parent="1" source="sq4ge6hewjvMw_6YLF9u-20" target="sq4ge6hewjvMw_6YLF9u-22">
          <mxGeometry relative="1" as="geometry">
            <Array as="points">
              <mxPoint x="350" y="350" />
              <mxPoint x="350" y="490" />
            </Array>
          </mxGeometry>
        </mxCell>
        <mxCell id="sq4ge6hewjvMw_6YLF9u-20" value="有料会員登録&lt;br&gt;（無料会員のみ）" style="whiteSpace=wrap;html=1;" vertex="1" parent="1">
          <mxGeometry x="400" y="320" width="120" height="60" as="geometry" />
        </mxCell>
        <mxCell id="sq4ge6hewjvMw_6YLF9u-25" value="" style="edgeStyle=orthogonalEdgeStyle;rounded=0;orthogonalLoop=1;jettySize=auto;html=1;" edge="1" parent="1" source="sq4ge6hewjvMw_6YLF9u-22" target="sq4ge6hewjvMw_6YLF9u-24">
          <mxGeometry relative="1" as="geometry">
            <Array as="points">
              <mxPoint x="350" y="490" />
              <mxPoint x="350" y="630" />
            </Array>
          </mxGeometry>
        </mxCell>
        <mxCell id="sq4ge6hewjvMw_6YLF9u-22" value="有料会員解約&lt;br&gt;（有料会員のみ）" style="whiteSpace=wrap;html=1;" vertex="1" parent="1">
          <mxGeometry x="400" y="460" width="120" height="60" as="geometry" />
        </mxCell>
        <mxCell id="sq4ge6hewjvMw_6YLF9u-27" value="" style="edgeStyle=orthogonalEdgeStyle;rounded=0;orthogonalLoop=1;jettySize=auto;html=1;" edge="1" parent="1" source="sq4ge6hewjvMw_6YLF9u-24" target="sq4ge6hewjvMw_6YLF9u-26">
          <mxGeometry relative="1" as="geometry">
            <Array as="points">
              <mxPoint x="350" y="630" />
              <mxPoint x="350" y="770" />
            </Array>
          </mxGeometry>
        </mxCell>
        <mxCell id="sq4ge6hewjvMw_6YLF9u-24" value="クレジットカード&lt;br&gt;編集&lt;br&gt;（有料会員のみ）" style="whiteSpace=wrap;html=1;" vertex="1" parent="1">
          <mxGeometry x="400" y="600" width="120" height="60" as="geometry" />
        </mxCell>
        <mxCell id="sq4ge6hewjvMw_6YLF9u-29" value="" style="edgeStyle=orthogonalEdgeStyle;rounded=0;orthogonalLoop=1;jettySize=auto;html=1;" edge="1" parent="1" source="sq4ge6hewjvMw_6YLF9u-26" target="sq4ge6hewjvMw_6YLF9u-28">
          <mxGeometry relative="1" as="geometry">
            <Array as="points">
              <mxPoint x="350" y="770" />
              <mxPoint x="350" y="910" />
            </Array>
          </mxGeometry>
        </mxCell>
        <mxCell id="sq4ge6hewjvMw_6YLF9u-26" value="予約一覧" style="whiteSpace=wrap;html=1;" vertex="1" parent="1">
          <mxGeometry x="400" y="740" width="120" height="60" as="geometry" />
        </mxCell>
        <mxCell id="sq4ge6hewjvMw_6YLF9u-28" value="ログアウト" style="whiteSpace=wrap;html=1;" vertex="1" parent="1">
          <mxGeometry x="400" y="880" width="120" height="60" as="geometry" />
        </mxCell>
      </root>
    </mxGraphModel>
  </diagram>
</mxfile>
